<?xml version="1.0" encoding="UTF-8" standalone="no"?>
<svg
   xmlns:dc="http://purl.org/dc/elements/1.1/"
   xmlns:cc="http://creativecommons.org/ns#"
   xmlns:rdf="http://www.w3.org/1999/02/22-rdf-syntax-ns#"
   xmlns:svg="http://www.w3.org/2000/svg"
   xmlns="http://www.w3.org/2000/svg"
   xmlns:sodipodi="http://sodipodi.sourceforge.net/DTD/sodipodi-0.dtd"
   xmlns:inkscape="http://www.inkscape.org/namespaces/inkscape"
   width="835.04456"
   height="219.83006"
   viewBox="0 0 668.03569 175.86405"
   version="1.1"
   id="svg3002"
   inkscape:version="0.48.4 r9939"
   sodipodi:docname="copos_logo.svg">
  <metadata
     id="metadata3017">
    <rdf:RDF>
      <cc:Work
         rdf:about="">
        <dc:format>image/svg+xml</dc:format>
        <dc:type
           rdf:resource="http://purl.org/dc/dcmitype/StillImage" />
        <dc:title></dc:title>
      </cc:Work>
    </rdf:RDF>
  </metadata>
  <defs
     id="defs3015" />
  <sodipodi:namedview
     pagecolor="#ffffff"
     bordercolor="#666666"
     borderopacity="1"
     objecttolerance="10"
     gridtolerance="10"
     guidetolerance="10"
     inkscape:pageopacity="0"
     inkscape:pageshadow="2"
     inkscape:window-width="1920"
     inkscape:window-height="1018"
     id="namedview3013"
     showgrid="false"
     fit-margin-right="2"
     fit-margin-top="2"
     fit-margin-left="2"
     fit-margin-bottom="2"
     inkscape:zoom="1.1194815"
     inkscape:cx="481.81755"
     inkscape:cy="-0.73864203"
     inkscape:window-x="-8"
     inkscape:window-y="-8"
     inkscape:window-maximized="1"
     inkscape:current-layer="svg3002" />
  <g
     id="surface1"
     transform="translate(-86.919771,-209.7047)">
    <path
       style="fill:#d72319;fill-opacity:1;fill-rule:evenodd;stroke:none"
       d="m 171.21484,211.30469 c 22.54297,2.60156 43.67969,15.5 55.92578,36.74609 12.2461,21.13281 12.79297,45.84766 3.79297,66.76563 -24.38672,1.30078 -48.66406,-10.73047 -61.78125,-33.38282 -13.0039,-22.54687 -11.3789,-49.64453 2.0625,-70.1289"
       id="path3005"
       inkscape:connector-curvature="0" />
    <path
       style="fill:#d72319;fill-opacity:1;fill-rule:evenodd;stroke:none"
       d="m 226.71094,322.94531 c -6.28907,10.6211 -15.28516,19.94531 -26.77735,26.55469 -35.55078,20.48437 -80.96093,8.34375 -101.449215,-27.20313 -18.75,-32.51953 -10.1875,-73.27343 18.535155,-95.71093 4.76953,54.08984 50.18359,96.46875 105.46094,96.46875 1.40625,0 2.8164,0 4.23047,-0.10938"
       id="path3007"
       inkscape:connector-curvature="0" />
    <path
       style="fill:#1c1714;fill-opacity:1;fill-rule:evenodd;stroke:none"
       d="m 350.81641,324.41797 c -4.23047,1.84765 -9.4375,2.92969 -16.05469,2.92969 -13.66797,0 -24.73047,-8.67969 -24.73047,-25.27344 -0.21875,-14.53516 9.4375,-25.05469 24.1875,-25.05469 7.37891,0 12.36719,1.30078 15.62109,2.71094 l 4.44532,-20.82813 c -5.85547,-2.16797 -13.98829,-3.47265 -21.36719,-3.47265 -33.51563,0 -51.63281,21.58984 -51.63281,47.73047 0,28.20312 18.66015,46.10156 47.72656,46.10156 10.73828,0 20.07031,-1.84766 25.05859,-4.23438 z m 58.35937,25.05859 c 23.96875,0 47.39844,-15.1875 47.39844,-47.94531 0,-27.33203 -18.4375,-46.31641 -45.88281,-46.31641 -29.17969,0 -48.26954,18.65625 -48.26954,47.72657 0,29.17968 20.28516,46.53515 46.64454,46.53515 z m 0.43359,-20.17578 c -11.82421,0 -18.22265,-11.60547 -18.22265,-26.90234 0,-13.44922 5.09765,-27.00782 18.33203,-27.00782 12.79687,0 17.89453,13.5586 17.89453,26.90235 0,16.16015 -6.83594,27.00781 -17.89453,27.00781 z m 64.32422,54.66797 27.98438,0 0,-44.79688 0.32422,0 c 4.12109,5.85547 12.58203,10.30469 23.42968,10.30469 20.17579,0 41.00391,-15.51172 41.00391,-48.3789 0,-28.7461 -17.78906,-45.88282 -37.42578,-45.88282 -13.12109,0 -23.42969,5.20703 -30.04297,14.64453 l -0.43359,0 -1.30469,-12.58203 -24.29688,0 c 0.32422,8.46094 0.76172,18.4375 0.76172,30.26172 z m 27.98438,-87.64453 c 0,-1.625 0.21484,-3.47266 0.54297,-4.98828 1.83984,-8.2461 8.89062,-14.10157 16.8125,-14.10157 12.47265,0 18.98047,10.84766 18.98047,25.16407 0,15.29687 -7.15625,25.49218 -19.41407,25.49218 -8.02734,0 -14.53906,-5.75 -16.3789,-13.23437 -0.32813,-1.84375 -0.54297,-3.6875 -0.54297,-5.96484 z m 123.875,53.15234 c 23.97265,0 47.40234,-15.1875 47.40234,-47.94531 0,-27.33203 -18.4414,-46.31641 -45.88672,-46.31641 -29.17578,0 -48.375,18.65625 -48.375,47.72657 0,29.17968 20.28125,46.53515 46.64453,46.53515 z m 0.32422,-20.17578 c -11.71485,0 -18.22266,-11.60547 -18.22266,-26.90234 0,-13.44922 5.20703,-27.00782 18.44141,-27.00782 12.6875,0 17.89453,13.5586 17.89453,26.90235 0,16.16015 -6.83203,27.00781 -17.89453,27.00781 z m 59.22656,13.55859 c 6.83203,3.57813 17.35156,6.40235 29.07031,6.40235 25.81641,0 38.94141,-12.3711 38.94141,-29.28906 -0.21875,-13.125 -7.16016,-21.80469 -24.30078,-27.66016 -11.0625,-3.6875 -14.64063,-6.07422 -14.64063,-10.30469 0,-4.44922 3.90625,-7.26953 10.73828,-7.26953 7.59375,0 15.51172,3.03906 19.52735,4.99219 l 4.76953,-19.09375 c -5.53125,-2.81641 -14.75391,-5.42188 -25.27344,-5.42188 -22.23828,0 -36.66406,12.80078 -36.66406,29.71875 -0.10547,10.52344 7.05078,20.61328 25.8164,26.90235 10.30469,3.36328 13.125,5.75 13.125,10.30468 0,4.66407 -3.57812,7.37891 -12.03906,7.37891 -8.24219,0 -18.98437,-3.47266 -24.08203,-6.61719 z"
       id="path3009"
       inkscape:connector-curvature="0" />
    <path
       style="fill:#1c1714;fill-opacity:1;fill-rule:nonzero;stroke:none"
       d="m 395.62891,238.57812 c 1.27734,0.85157 3.78515,1.5625 6.08203,1.5625 5.62109,0 8.3125,-3.22265 8.3125,-6.86328 0,-3.5039 -2.01563,-5.41406 -6.04688,-7.0039 -3.28906,-1.27344 -4.73828,-2.36719 -4.73828,-4.5586 0,-1.6289 1.23438,-3.57422 4.49219,-3.57422 2.15234,0 3.74609,0.67188 4.48828,1.12891 l 0.84766,-2.54297 c -1.02344,-0.5664 -2.82813,-1.13281 -5.23438,-1.13281 -4.63281,0 -7.70703,2.76172 -7.70703,6.47266 0,3.32031 2.40625,5.375 6.29297,6.71875 3.21875,1.19921 4.49219,2.50781 4.49219,4.73828 0,2.40234 -1.83594,4.03125 -4.98438,4.03125 -2.125,0 -4.10156,-0.67188 -5.48047,-1.52344 z m 27.05078,1.20313 0,-10.14844 7.95703,-13.68359 -3.46485,0 -3.42968,6.57422 c -0.91797,1.80468 -1.76953,3.36328 -2.40625,4.91797 l -0.0703,0 c -0.74218,-1.66407 -1.48437,-3.11329 -2.36718,-4.91797 l -3.35938,-6.57422 -3.53906,0 7.57031,13.71875 0,10.11328 z m 9.05468,-1.20313 c 1.27344,0.85157 3.78516,1.5625 6.08204,1.5625 5.62109,0 8.30859,-3.22265 8.30859,-6.86328 0,-3.5039 -2.01172,-5.41406 -6.04688,-7.0039 -3.28906,-1.27344 -4.73828,-2.36719 -4.73828,-4.5586 0,-1.6289 1.23828,-3.57422 4.49219,-3.57422 2.15625,0 3.74609,0.67188 4.49219,1.12891 l 0.84375,-2.54297 c -1.02344,-0.5664 -2.82422,-1.13281 -5.23047,-1.13281 -4.63281,0 -7.70703,2.76172 -7.70703,6.47266 0,3.32031 2.40234,5.375 6.29297,6.71875 3.21875,1.19921 4.48828,2.50781 4.48828,4.73828 0,2.40234 -1.83594,4.03125 -4.98438,4.03125 -2.12109,0 -4.10156,-0.67188 -5.48047,-1.52344 z m 23.16016,1.20313 3.11328,0 0,-21.21484 7.28125,0 0,-2.61719 -17.64844,0 0,2.61719 7.25391,0 z m 25.35547,-13.72266 -9.23047,0 0,-7.53125 9.79688,0 0,-2.57812 -12.90625,0 0,23.83203 13.43359,0 0,-2.58203 -10.32422,0 0,-8.59375 9.23047,0 z m 25.74219,13.72266 3.04297,0 -1.48438,-23.83203 -3.92578,0 -4.24609,11.52734 c -1.0586,3.00391 -1.91016,5.65625 -2.54688,8.0625 l -0.0664,0 c -0.64062,-2.47656 -1.41796,-5.1289 -2.40625,-8.0625 l -4.0664,-11.52734 -3.92578,0 -1.66407,23.83203 2.9375,0 0.63672,-10.21875 c 0.21094,-3.57031 0.38672,-7.56641 0.45703,-10.53906 l 0.0742,0 c 0.67188,2.83203 1.58985,5.90625 2.72266,9.26562 l 3.88672,11.35156 2.33594,0 4.20703,-11.5625 c 1.20312,-3.2539 2.15625,-6.29687 3.00781,-9.05468 l 0.0703,0 c 0,2.9375 0.21094,7.0039 0.38672,10.29297 z m 16.19531,0 0,-10.14844 7.95703,-13.68359 -3.46484,0 -3.42969,6.57422 c -0.91797,1.80468 -1.76953,3.36328 -2.40625,4.91797 l -0.0703,0 c -0.74219,-1.66407 -1.48438,-3.11329 -2.3711,-4.91797 l -3.35937,-6.57422 -3.53516,0 7.56641,13.71875 0,10.11328 z m 18.17578,-23.83203 0,23.83203 3.11328,0 0,-23.83203 z m 11.38672,23.83203 0,-10.18359 c 0,-3.96094 -0.0352,-6.82422 -0.21094,-9.82813 l 0.10547,-0.0391 c 1.16406,2.57812 2.75781,5.30469 4.41797,7.95703 l 7.57031,12.09375 3.10938,0 0,-23.83203 -2.89844,0 0,10.00781 c 0,3.67578 0.0703,6.57422 0.35156,9.75781 l -0.10547,0.0352 c -1.09375,-2.44141 -2.50781,-4.94922 -4.24218,-7.74219 l -7.60157,-12.05859 -3.39453,0 0,23.83203 z m 19.16797,-1.20313 c 1.26953,0.85157 3.78125,1.5625 6.08203,1.5625 5.62109,0 8.30859,-3.22265 8.30859,-6.86328 0,-3.5039 -2.01562,-5.41406 -6.04687,-7.0039 -3.28906,-1.27344 -4.73828,-2.36719 -4.73828,-4.5586 0,-1.6289 1.23828,-3.57422 4.48828,-3.57422 2.16015,0 3.75,0.67188 4.49219,1.12891 l 0.84765,-2.54297 c -1.02344,-0.5664 -2.82812,-1.13281 -5.23047,-1.13281 -4.63281,0 -7.71093,2.76172 -7.71093,6.47266 0,3.32031 2.40625,5.375 6.29687,6.71875 3.21484,1.19921 4.48828,2.50781 4.48828,4.73828 0,2.40234 -1.83984,4.03125 -4.98437,4.03125 -2.1211,0 -4.10157,-0.67188 -5.48047,-1.52344 z m 23.16015,1.20313 3.10938,0 0,-21.21484 7.28516,0 0,-2.61719 -17.64844,0 0,2.61719 7.2539,0 z m 22.70313,-7.49609 2.54297,7.49609 3.28906,0 -8.13281,-23.83203 -3.71094,0 -8.09766,23.83203 3.17969,0 2.47656,-7.49609 z m -7.81641,-2.40625 2.33203,-6.89454 c 0.46094,-1.45312 0.84766,-2.93359 1.16797,-4.3125 l 0.10547,0 c 0.35156,1.37891 0.71094,2.79297 1.20313,4.34766 l 2.36718,6.85938 z m 17.11328,9.90234 13.30079,0 0,-2.58203 -10.1875,0 0,-21.25 -3.11329,0 z m 29.03125,-7.49609 2.54688,7.49609 3.28906,0 -8.13281,-23.83203 -3.71094,0 -8.09765,23.83203 3.17968,0 2.47657,-7.49609 z m -7.8125,-2.40625 2.33204,-6.89454 c 0.46093,-1.45312 0.85156,-2.93359 1.16796,-4.3125 l 0.10547,0 c 0.35547,1.37891 0.70703,2.79297 1.20313,4.34766 l 2.37109,6.85938 z m 32.63672,6.64843 c -1.23828,0.60157 -3.14453,0.99219 -5.05468,0.99219 -5.76563,0 -9.125,-3.71484 -9.125,-9.55078 0,-6.22266 3.71484,-9.79297 9.30078,-9.79297 1.98047,0 3.64062,0.42578 4.77343,0.98828 l 0.77735,-2.54297 c -0.8125,-0.39062 -2.72266,-1.02734 -5.65625,-1.02734 -7.39063,0 -12.44531,5.01953 -12.44531,12.48437 0,7.8125 5.01953,12.0625 11.73437,12.0625 2.90234,0 5.19922,-0.57031 6.29688,-1.13671 z m 12.90625,3.25391 0,-10.14844 7.95703,-13.68359 -3.46484,0 -3.42969,6.57422 c -0.91797,1.80468 -1.76953,3.36328 -2.40234,4.91797 l -0.0742,0 c -0.74219,-1.66407 -1.48437,-3.11329 -2.36719,-4.91797 l -3.35937,-6.57422 -3.53906,0 7.57031,13.71875 0,10.11328 z m 13.65235,-8.13281 c 0,4.66797 -1.58985,5.90625 -4.35157,5.90625 -1.05859,0 -1.98046,-0.21485 -2.61718,-0.46094 l -0.42578,2.51172 c 0.74609,0.32422 2.125,0.57031 3.29296,0.57031 4.10157,0 7.21094,-1.94922 7.21094,-8.27734 l 0,-15.94922 -3.10937,0 z m 11.13672,8.13281 0,-10.18359 c 0,-3.96094 -0.0352,-6.82422 -0.21094,-9.82813 l 0.10547,-0.0391 c 1.16797,2.57812 2.75781,5.30469 4.42187,7.95703 l 7.56641,12.09375 3.11328,0 0,-23.83203 -2.90234,0 0,10.00781 c 0,3.67578 0.0703,6.57422 0.35156,9.75781 l -0.10156,0.0352 c -1.09766,-2.44141 -2.51172,-4.94922 -4.2461,-7.74219 l -7.60156,-12.05859 -3.39453,0 0,23.83203 z m 32.67578,-13.72266 -9.23047,0 0,-7.53125 9.79297,0 0,-2.57812 -12.90235,0 0,23.83203 13.4375,0 0,-2.58203 -10.32812,0 0,-8.59375 9.23047,0 z"
       id="path3011"
       inkscape:connector-curvature="0" />
  </g>
</svg>
